<svg width="161" height="49" viewBox="0 0 161 49" fill="none" xmlns="http://www.w3.org/2000/svg">
<path d="M141.412 0.381348C130.09 0.381348 121.598 8.87285 121.598 19.2891V19.4023C121.598 29.8185 129.977 38.1968 141.185 38.1968C152.507 38.1968 160.999 29.7053 160.999 19.2891V19.1759C161.112 8.75963 152.734 0.381348 141.412 0.381348ZM143.223 5.13659C149.337 5.81591 154.998 11.024 155.564 17.704C155.111 17.704 154.772 17.704 154.319 17.704C154.206 17.704 154.206 17.5908 154.206 17.5908C154.092 16.685 153.866 15.666 153.526 14.7603C152.281 11.5901 150.13 9.21251 147.073 7.62743C145.941 7.06133 144.695 6.72167 143.45 6.49523H143.337C143.223 6.04235 143.223 5.58947 143.223 5.13659ZM130.882 9.55217C133.26 6.94811 136.204 5.47625 139.714 5.13659C139.714 5.58947 139.714 6.04235 139.714 6.49523C136.77 6.94811 134.279 8.08031 132.128 10.2315C130.09 12.2694 128.844 14.8735 128.392 17.8172C127.939 17.8172 127.486 17.8172 127.033 17.8172C127.486 14.5338 128.731 11.8166 130.882 9.55217ZM139.714 33.5548C133.26 32.8755 127.825 27.5542 127.146 21.2138C127.599 21.2138 128.052 21.2138 128.505 21.2138C128.958 24.0443 130.203 26.5352 132.241 28.5731C134.279 30.6111 136.77 31.7433 139.714 32.1962C139.714 32.6491 139.714 33.1019 139.714 33.5548ZM143.223 33.5548C143.223 33.1019 143.223 32.6491 143.223 32.3094L143.337 32.1962C144.469 31.9697 145.488 31.7433 146.62 31.2904C150.356 29.4789 152.847 26.6484 153.979 22.6857C154.092 22.346 154.092 21.8932 154.206 21.5535L154.319 21.4403C154.772 21.4403 155.111 21.4403 155.564 21.4403C154.998 26.9881 150.017 32.7623 143.223 33.5548ZM157.716 20.1948C157.602 20.1948 157.489 20.1948 157.376 20.1948C155.225 20.1948 152.96 20.1948 150.809 20.1948C150.469 25.0633 147.299 29.026 142.091 29.3657C142.091 31.2904 142.091 33.2152 142.091 35.1399C142.091 35.5928 141.865 35.8192 141.525 35.9324C141.185 36.0457 140.733 35.706 140.733 35.3663C140.733 35.2531 140.733 35.2531 140.733 35.1399C140.733 33.4416 140.733 31.7433 140.733 30.045C140.733 29.8186 140.733 29.5921 140.733 29.4789C135.638 29.1392 132.241 25.0633 131.788 20.3081C129.637 20.3081 127.373 20.3081 125.221 20.3081C124.768 20.3081 124.429 19.9684 124.429 19.6287C124.429 19.2891 124.655 19.0626 124.995 18.9494C125.108 18.9494 125.221 18.9494 125.335 18.9494C127.033 18.9494 128.731 18.9494 130.429 18.9494C130.882 18.9494 131.335 18.9494 131.788 18.9494C131.901 13.9677 135.298 9.66539 140.733 9.43895C140.733 7.51421 140.733 5.58947 140.733 3.66473C140.733 3.55151 140.733 3.43829 140.733 3.32507C140.846 2.98541 141.185 2.87219 141.525 2.87219C141.865 2.87219 142.091 3.21185 142.091 3.55151C142.091 3.66473 142.091 3.66473 142.091 3.77795C142.091 5.47625 142.091 7.17455 142.091 8.87285C142.091 9.09929 142.091 9.32573 142.091 9.43895C147.073 9.89183 150.583 14.081 150.809 18.9494C151.262 18.9494 151.715 18.9494 152.168 18.9494C153.866 18.9494 155.678 18.9494 157.376 18.9494C157.829 18.9494 158.055 19.1759 158.168 19.5155C158.282 19.742 158.055 20.0816 157.716 20.1948Z" fill="#05A382"/>
<path d="M133.486 17.7038C133.26 17.7038 133.147 17.7038 132.92 17.7038C133.26 15.8923 134.166 14.3072 135.524 13.0618C136.657 12.0428 138.808 10.9106 139.714 10.9106C139.714 11.0239 139.714 11.2503 139.714 11.3635L139.6 11.4767C138.695 11.7032 137.902 12.0428 137.109 12.4957C135.298 13.7411 134.053 15.3262 133.6 17.4774C133.486 17.5906 133.486 17.5906 133.486 17.7038Z" fill="#05A382"/>
<path d="M149.79 17.7039C149.677 17.7039 149.677 17.7039 149.79 17.7039C149.337 17.8171 149.337 17.8171 149.111 17.3642C148.318 14.4205 146.394 12.4958 143.45 11.59C143.223 11.4768 143.11 11.4768 143.223 11.2504C143.223 11.1371 143.223 11.1371 143.223 11.0239C144.808 11.3636 146.167 12.0429 147.299 13.1751C148.545 14.4205 149.45 15.8924 149.79 17.7039Z" fill="#05A382"/>
<path d="M139.713 27.2146C139.713 27.441 139.713 27.5542 139.713 27.7807C138.242 27.441 136.883 26.8749 135.751 25.8559C134.392 24.6105 133.486 23.1387 133.034 21.3271C133.147 21.3271 133.373 21.3271 133.486 21.3271C133.486 21.3271 133.6 21.4404 133.6 21.5536C133.826 22.3461 134.166 23.1387 134.619 23.818C135.751 25.6295 137.449 26.7617 139.6 27.3278C139.6 27.2146 139.6 27.2146 139.713 27.2146Z" fill="#05A382"/>
<path d="M143.223 27.6675C143.223 27.441 143.223 27.3278 143.223 27.2146C143.563 27.1014 144.016 26.9881 144.356 26.8749C146.733 25.8559 148.318 24.0444 149.111 21.5536C149.224 21.3271 149.224 21.3271 149.45 21.3271C149.564 21.3271 149.564 21.3271 149.677 21.3271C149.224 23.9312 146.733 26.9882 143.223 27.6675Z" fill="#05A382"/>
<path d="M0 19.5155V19.4023C0 8.98607 7.3593 0.381348 18.002 0.381348C30.1165 0.381348 35.7775 9.77861 35.7775 20.1949C35.7775 20.9874 35.6643 22.0064 35.6643 22.9121H10.303C11.322 27.5542 14.6054 30.045 19.2474 30.045C22.7572 30.045 25.2481 28.9128 28.0786 26.3087L33.966 31.5169C30.5694 35.706 25.7009 38.3101 19.1342 38.3101C8.03862 38.3101 0 30.6111 0 19.5155ZM25.7009 16.4586C25.1348 11.8166 22.4176 8.75963 18.002 8.75963C13.6996 8.75963 10.9823 11.8166 10.0766 16.4586H25.7009Z" fill="#05A382"/>
<path d="M43.3633 1.06067H53.6663V6.26879C56.1571 3.21185 59.2141 0.381348 64.4222 0.381348C72.2344 0.381348 76.7632 5.58947 76.7632 13.8545V37.4043H66.4602V17.1379C66.4602 12.2694 64.1958 9.77861 60.2331 9.77861C56.2704 9.77861 53.7795 12.2694 53.7795 17.1379V37.4043H43.4765V1.06067H43.3633Z" fill="#05A382"/>
<path d="M84.2357 46.0089L87.7455 38.5364C89.1042 39.3289 90.8025 40.0082 92.1611 40.0082C93.9726 40.0082 94.8784 39.4421 95.7842 37.6306L81.4052 1.06055H92.3876L100.653 25.8557L108.578 1.06055H119.334L105.408 38.3099C102.577 45.6692 99.6336 48.4997 93.4065 48.4997C89.6703 48.4997 86.8398 47.594 84.2357 46.0089Z" fill="#05A382"/>
</svg>
